<svg width="742" height="416" viewBox="0 0 742 416" fill="none" xmlns="http://www.w3.org/2000/svg">
<path d="M637.824 358.493C634.075 358.493 630.348 356.915 627.718 353.844C614.348 338.228 599.581 323.819 583.818 311.017C558.841 290.724 531.005 274.073 501.084 261.523C494.313 258.683 491.127 250.892 493.965 244.121C496.806 237.35 504.598 234.164 511.367 237.004C543.626 250.533 573.639 268.491 600.584 290.38C617.583 304.186 633.507 319.723 647.914 336.553C652.689 342.132 652.037 350.523 646.46 355.298C643.954 357.445 640.883 358.493 637.824 358.493Z" fill="white"/>
<path d="M452.831 245.054C449.308 245.054 445.896 243.636 443.414 241.154C442.816 240.556 442.24 239.869 441.775 239.138C441.287 238.429 440.868 237.653 440.534 236.856C440.202 236.058 439.958 235.216 439.781 234.374C439.603 233.51 439.537 232.624 439.537 231.76C439.537 228.259 440.933 224.824 443.414 222.365C446.494 219.285 451.081 217.867 455.423 218.731C456.265 218.908 457.107 219.152 457.905 219.485C458.703 219.817 459.478 220.238 460.209 220.703C460.918 221.191 461.605 221.745 462.226 222.365C464.685 224.824 466.103 228.259 466.103 231.76C466.103 232.624 466.014 233.51 465.859 234.374C465.682 235.216 465.416 236.058 465.084 236.856C464.751 237.653 464.353 238.429 463.865 239.138C463.375 239.869 462.822 240.556 462.226 241.154C461.605 241.774 460.918 242.328 460.209 242.816C459.478 243.303 458.703 243.702 457.905 244.034C457.107 244.367 456.265 244.633 455.423 244.788C454.559 244.965 453.693 245.054 452.831 245.054Z" fill="white"/>
<path d="M419.223 146.77C412.623 146.77 406.9 141.86 406.051 135.14L396.526 59.7045C395.606 52.4193 400.767 45.77 408.05 44.8505C415.335 43.931 421.984 49.0891 422.906 56.3743L432.431 131.81C433.351 139.095 428.19 145.744 420.907 146.664C420.34 146.737 419.779 146.77 419.223 146.77Z" fill="white"/>
<path fill-rule="evenodd" clip-rule="evenodd" d="M628.526 255.988C675.231 293.932 713.673 342.555 739.692 396.605C741.68 400.73 741.403 405.589 738.961 409.465C736.526 413.324 732.281 415.666 727.716 415.666H727.672L501.49 414.942L374.336 414.534L241.303 414.111L14.2392 413.384C9.66155 413.369 5.41186 410.998 2.99232 407.107C0.575002 403.216 0.32906 398.357 2.34312 394.243C28.7143 340.368 67.4645 291.998 114.411 254.357C159.491 218.211 212.499 191.726 268.224 177.389L290.186 12.0537C291.061 5.44433 296.698 0.51001 303.363 0.51001H303.407L358.38 0.687256L371.674 0.72934L384.967 0.771454L441.154 0.953125C447.837 0.975282 453.465 5.95396 454.302 12.5833L475.194 178.022C530.839 192.73 583.683 219.558 628.526 255.988ZM429.387 27.5038L315.004 27.136L295.849 171.311C320.776 166.72 346.205 164.418 371.765 164.469C397.29 164.56 422.713 167.041 447.604 171.779L429.387 27.5038ZM131.044 275.101C92.7478 305.808 60.2835 344.142 36.2476 386.865L705.841 389.009C682.082 346.127 649.864 307.578 611.763 276.625C567.586 240.738 515.121 214.794 460.041 201.597C431.277 194.711 401.547 191.166 371.67 191.062C341.862 191.006 312.059 194.319 283.235 201.059C228.073 213.892 175.451 239.492 131.044 275.101Z" fill="white"/>
</svg>
