<svg width="897" height="269" viewBox="0 0 897 269" fill="none" xmlns="http://www.w3.org/2000/svg">
<path d="M238.141 36.455C235.286 88.2877 231.096 140.361 229.807 192.276C229.548 202.694 232.935 171.637 233.719 161.244C235.318 140.037 232.286 119.626 232.018 98.5193C231.861 86.1954 232.018 49.22 232.018 61.5448C232.018 108.143 226.364 247.778 225.384 201.19C224.771 172.055 229.857 142.007 232.358 113.045C233.004 105.564 233.636 98.0815 234.229 90.5962C234.469 87.571 233.724 96.6454 233.549 99.6748C231.193 140.357 233.279 181.176 230.317 221.823C227.97 254.035 222.824 232.927 218.41 216.045C206.791 171.609 222.654 117.505 231.337 73.4295C234.863 55.5316 225.203 34.3683 250.729 36.6201C304.579 41.3707 360.17 101.285 350.067 153.981C341.794 197.135 316.441 225.581 276.244 245.757C270.408 248.686 235.338 265.62 232.188 251.864C231.453 248.655 223.444 237.041 232.018 244.436C240.138 251.44 261.206 248.234 270.12 244.436C292.861 234.748 322.763 237.072 334.588 213.239C361.986 158.021 357.385 70.4308 294.785 38.2707C276.984 29.1259 243.179 31.944 223.853 33.6489C221.155 33.8869 217.115 38.0532 221.472 39.2611C230.874 41.8681 246.911 31.9714 255.492 29.5223C280.027 22.5197 303.715 36.1936 317.748 54.9423C349.159 96.9086 351.001 148.022 329.825 194.257C317.468 221.238 301.863 231.753 275.563 246.087C261.985 253.488 225.894 274.46 225.894 248.068C225.894 171.196 222.832 -59.3989 222.832 17.4726C222.832 70.8047 228.27 123.87 228.956 177.09C229.241 199.179 237.152 221.216 238.141 243.776C238.966 262.572 286.643 243.46 294.444 238.659C303.339 233.186 317.899 228.521 323.702 219.512C334.809 202.266 337.708 175.58 338.841 155.797C340.926 119.368 326.266 87.3366 312.305 53.9519C301.991 29.2879 277.042 30.5127 253.961 30.5127C245.86 30.5127 222.832 25.4959 222.832 36.455" stroke="white" stroke-width="3" stroke-linecap="round"/>
<path d="M450.527 135.707C442.307 127.487 425.252 112.253 412.745 118.361C400.624 124.281 397.759 148.334 399.178 159.922C400.638 171.845 415.103 170.231 423.908 169.196C475.929 163.075 395.431 133.709 396.258 153.567C396.812 166.856 436.757 139.173 439.536 136.394C454.49 121.44 409.905 129.646 427.171 149.789C437.465 161.799 463.223 140.918 432.838 137.939C393.811 134.113 408.345 182.351 440.051 173.832C454.311 170.001 495.568 143.136 462.892 136.394C435.919 130.828 409.54 125.836 410.341 159.063C410.846 180.042 425.34 170.431 424.252 153.567C423.281 138.524 413.691 127.202 398.835 124.372C393.448 123.346 383.055 124.262 382.176 131.585C379.734 151.932 424.118 151.903 435.415 147.385C451.88 140.799 448.503 105.469 432.667 120.937C421.043 132.291 429.478 152.746 444.345 156.659C461.13 161.076 458.961 131.313 451.558 124.029C420.553 93.5243 416.242 145.601 416.695 165.074C416.844 171.461 420.013 205.603 433.525 185.854C442.408 172.872 443.267 149.87 438.162 135.363C433.644 122.522 408.075 130.544 403.128 139.142C392.486 157.638 410.845 164.881 426.656 162.841C439.527 161.181 454.342 123.144 451.558 112.007C450.519 107.852 435.828 113.319 435.415 113.553C421.047 121.685 405.4 141.747 403.3 158.548C401.206 175.298 429.699 186.009 438.506 170.398C443.648 161.282 459.542 143.568 456.023 131.929C450.37 113.229 409.366 120.535 396.602 124.029C351.65 136.331 422.74 191.26 451.386 171.428C464.256 162.518 501.137 139.634 476.288 126.433C463.177 119.468 414.784 101.874 408.624 125.746C406.374 134.461 412.652 145.252 418.928 150.82C428.191 159.037 439.272 150.259 447.436 144.981C463.399 134.661 474.516 125.964 448.467 126.433C414.627 127.043 397.658 143.351 395.572 177.782C393.82 206.68 435.385 211.446 446.406 187.4C451.646 175.966 455.942 149.477 442.284 141.889C426.215 132.962 392.951 129.094 388.359 152.537C384.347 173.018 392.816 177.383 410.856 175.378C429.677 173.287 439.46 162.416 451.214 148.415C462.014 135.551 486.416 115.202 490.714 98.4399C494.04 85.4665 458.639 88.3594 453.79 88.9943C438.968 90.9354 422.676 96.8275 413.089 108.916C400.33 125.003 422.465 158.762 433.182 170.398C454.384 193.418 467.851 144.348 467.014 131.242C465.559 108.437 420.145 93.1398 405.532 111.664C386.761 135.459 394.875 179.028 424.595 187.4C445.796 193.372 456.472 186.061 466.842 167.306C469.008 163.391 485.371 135.681 478.52 130.039C464.671 118.634 428.124 113.94 416.867 129.868C393.311 163.197 405.423 196.017 441.597 207.836C463.373 214.951 461.384 156.452 453.275 144.981C445.383 133.817 422.625 122.281 409.31 126.776C382.303 135.896 407.359 163.378 418.584 172.287C429.402 180.872 445.007 191.741 454.477 175.55C461.462 163.609 466.184 144.762 466.499 130.898C467.593 82.7525 365.096 171.138 424.08 175.206C438.275 176.185 464.626 170.838 468.388 153.911C471.725 138.896 467.687 118.078 454.993 108.229C445.122 100.57 416.886 92.1199 404.845 98.2681C390.973 105.352 398.025 135.627 401.926 146.355C406.921 160.091 419.155 167.421 431.465 173.832C456.68 186.966 462.766 159.894 463.064 136.909C464.232 46.9874 361.729 139.128 392.137 179.672C409.38 202.663 429.253 197.638 447.78 182.076C461.572 170.49 491.874 155.027 499.301 138.111C504.385 126.531 476.403 121.676 470.449 121.109C448.495 119.018 421.511 122.998 429.575 150.476C439.498 184.285 462.003 153.123 461.519 132.272C460.93 106.972 423.225 127.743 416.18 138.111C413.092 142.656 406.906 158.377 411.028 163.872C414.234 168.146 419.419 156.996 422.362 152.537C434.265 134.505 445.48 113.721 456.71 95.5203" stroke="white" stroke-width="3" stroke-linecap="round"/>
<path d="M580.954 66.2291C580.954 118.267 584.049 170.328 584.049 222.305C584.049 256.128 566.566 156.278 561.013 122.795C559.28 112.346 556.188 102.311 553.793 91.9949C553.671 91.472 553.842 80.8012 556.2 85.1833C580.96 131.208 574.766 287.247 574.766 236.52C574.766 203.096 568.742 170.039 568.577 136.419C568.457 111.986 568.577 38.6863 568.577 63.1194C568.577 113.812 568.577 164.504 568.577 215.197C568.577 220.972 568.577 238.297 568.577 232.522C568.577 197.872 568.652 163.221 568.405 128.571C568.123 89.0252 566.248 -29.5817 565.483 9.95894C564.955 37.225 565.235 64.5829 565.654 91.8468C566.108 121.355 571.671 151.691 571.671 180.546C571.671 205.538 575.44 280.46 574.766 255.475C573.973 226.125 567.989 197.719 577.516 168.996C579.815 162.066 577.931 183.409 577.86 190.616C577.66 210.745 576.629 231.311 574.078 251.328C573.085 259.123 571.671 266.849 571.671 254.586C571.671 230.893 571.671 207.201 571.671 183.508" stroke="white" stroke-width="3" stroke-linecap="round"/>
<path d="M524.717 21.3293C561.187 21.3293 597.262 20.9157 633.599 18.4098C636.841 18.1862 663.835 18.2381 651.631 18.2381C621.978 18.2381 592.325 18.2381 562.671 18.2381C548.838 18.2381 533.626 16.644 520.081 20.1272C507.461 23.3722 495.937 28.4078 482.814 29.9162C481.749 30.0385 461.621 31.6851 464.266 33.0074C469.763 35.7558 480.781 33.6944 486.592 33.6944C514.526 33.6944 542.466 33.8577 570.399 33.6944C600.556 33.518 630.559 30.6031 660.733 30.6031C670.829 30.6031 709.822 30.6031 677.22 30.6031C615.566 30.6031 430.818 35.5514 492.259 30.4314C549.981 25.6213 606.982 21.3293 665.027 21.3293C699.315 21.3293 659.64 23.1353 646.307 25.1075C587.648 33.785 517.853 46.0944 458.77 33.6944C451.879 32.2481 438.931 26.9342 454.649 28.1988C487.221 30.8196 519.201 29.2446 551.852 28.1988C584.984 27.1376 618.034 25.8603 651.116 23.7336C659.532 23.1926 682.351 18.1961 685.463 24.4206" stroke="white" stroke-width="3" stroke-linecap="round"/>
<path d="M571.086 39.8779C571.086 81.839 571.086 123.8 571.086 165.761C571.086 202.402 571.086 141.901 571.086 135.707C571.086 105.204 570.262 75.4088 568.167 45.03C565.551 7.09898 570.35 93.6487 570.4 95.5207C570.851 112.627 570.964 122.789 571.086 139.142C571.099 140.745 571.086 145.553 571.086 143.951C571.086 141.775 571.086 139.6 571.086 137.425C571.086 104.565 571.086 71.7065 571.086 38.8474C571.086 29.9169 570.412 20.9467 571.258 12.0565C571.589 8.5802 572.598 18.9122 573.147 22.3607C577.275 48.2509 582.566 73.9655 585.856 99.9858C587.659 114.246 586.503 97.8902 584.997 93.975C581.364 84.5287 579.716 74.5668 577.269 64.7797C570.87 39.1834 574.178 107.039 574.178 109.603C574.178 119.335 574.178 148.53 574.178 138.798C574.178 127.578 574.178 116.358 574.178 105.138C574.178 93.6888 574.178 82.2397 574.178 70.7905C574.178 62.5495 574.178 46.8746 574.178 65.2949C574.178 114.812 574.178 164.33 574.178 213.848C574.178 223.866 574.178 233.883 574.178 243.901C574.178 260.159 574.388 211.382 574.006 195.128C573.025 153.422 554.754 91.0898 574.178 52.2429" stroke="white" stroke-width="3" stroke-linecap="round"/>
<line y1="-6" x2="190.885" y2="-6" transform="matrix(-0.757754 0.65254 -0.757754 -0.65254 154.644 11.4917)" stroke="white" stroke-width="12"/>
<line y1="-6" x2="191.479" y2="-6" transform="matrix(-0.757754 -0.65254 0.757754 -0.65254 155.094 261)" stroke="white" stroke-width="12"/>
<line y1="-6" x2="206.674" y2="-6" transform="matrix(0.797976 -0.602689 0.797976 0.602689 721.521 261)" stroke="white" stroke-width="12"/>
<line y1="-6" x2="207.318" y2="-6" transform="matrix(0.797976 0.602689 -0.797976 0.602689 721.007 11.4917)" stroke="white" stroke-width="12"/>
</svg>
